<svg xmlns="http://www.w3.org/2000/svg" width="256" height="256" viewBox="0 0 256 256"><path fill="#A36196" d="M2.5 2.5h251v251H2.5z"/><path fill="#824679" d="M251 5v246H5V5h246m5-5H0v256h256V0z"/><path fill="none" stroke="#FFF" stroke-miterlimit="10" d="M26.71 34.157c-.936.336-2.784.888-4.968.888-2.448 0-4.464-.624-6.05-2.136-1.39-1.346-2.255-3.506-2.255-6.026.024-4.824 3.336-8.353 8.76-8.353 1.873 0 3.337.41 4.033.745l-.504 1.705c-.864-.383-1.944-.695-3.577-.695-3.938 0-6.506 2.448-6.506 6.504 0 4.102 2.472 6.527 6.24 6.527 1.37 0 2.305-.192 2.785-.432V28.06h-3.29v-1.68h5.33v7.776zm4.415-4.704c.048 2.856 1.872 4.032 3.984 4.032 1.51 0 2.422-.264 3.214-.6l.36 1.512c-.744.336-2.016.72-3.864.72-3.575 0-5.71-2.353-5.71-5.857s2.063-6.264 5.447-6.264c3.792 0 4.8 3.336 4.8 5.472 0 .432-.047.768-.07.984h-8.162zm6.192-1.512c.024-1.342-.552-3.43-2.928-3.43-2.138 0-3.074 1.967-3.24 3.432h6.166zm4.656-1.534c0-1.2-.024-2.184-.096-3.145h1.872l.12 1.92h.046c.576-1.103 1.92-2.183 3.84-2.183 1.608 0 4.104.96 4.104 4.944v6.938h-2.11V28.18c0-1.872-.696-3.432-2.688-3.432-1.393 0-2.473.984-2.833 2.16-.098.264-.146.624-.146.984v6.984h-2.112v-8.47zm14.496 3.048c.046 2.856 1.87 4.032 3.982 4.032 1.512 0 2.424-.264 3.216-.6l.36 1.512c-.745.336-2.017.72-3.865.72-3.576 0-5.712-2.353-5.712-5.857s2.065-6.263 5.45-6.263c3.792 0 4.8 3.336 4.8 5.472 0 .43-.047.767-.07.983h-8.16zm6.19-1.512c.024-1.343-.55-3.432-2.928-3.432-2.136 0-3.072 1.968-3.24 3.433h6.168zm4.655-1.055c0-1.368-.024-2.544-.096-3.625h1.847l.072 2.28h.095c.528-1.56 1.8-2.544 3.216-2.544.24 0 .41.024.6.072v1.992c-.215-.048-.43-.072-.72-.072-1.487 0-2.543 1.128-2.83 2.712-.05.288-.097.624-.097.984v6.192h-2.088v-7.99zm14.16 7.992l-.167-1.465h-.073c-.648.912-1.896 1.73-3.552 1.73-2.353 0-3.553-1.657-3.553-3.337 0-2.808 2.497-4.344 6.985-4.32v-.24c0-.96-.264-2.688-2.64-2.688-1.08 0-2.208.336-3.024.864l-.48-1.392c.96-.624 2.353-1.032 3.817-1.032 3.55 0 4.416 2.424 4.416 4.752v4.344c0 1.008.048 1.992.192 2.784h-1.92zm-.31-5.93c-2.305-.05-4.92.36-4.92 2.616 0 1.368.91 2.017 1.99 2.017 1.513 0 2.473-.96 2.81-1.944.07-.217.12-.457.12-.673V28.95zm7.895-9.025v3.336h3.025v1.61H89.06v6.264c0 1.44.41 2.256 1.585 2.256.552 0 .96-.073 1.224-.145l.094 1.584c-.408.166-1.056.286-1.872.286-.984 0-1.776-.312-2.28-.888-.6-.625-.816-1.657-.816-3.025V24.87h-1.8v-1.61h1.8v-2.784l2.064-.552zm6.433 9.53c.048 2.855 1.872 4.03 3.984 4.03 1.512 0 2.424-.263 3.216-.6l.36 1.513c-.744.336-2.016.72-3.864.72-3.578 0-5.714-2.353-5.714-5.857s2.064-6.263 5.448-6.263c3.792 0 4.8 3.336 4.8 5.472 0 .43-.047.767-.07.983h-8.162zm6.192-1.513c.024-1.343-.552-3.432-2.928-3.432-2.136 0-3.072 1.968-3.24 3.433h6.168zm9.815 6.937V18.7h2.28l5.184 8.185c1.2 1.896 2.136 3.6 2.904 5.256l.048-.022c-.192-2.16-.24-4.128-.24-6.648V18.7h1.968v16.177h-2.112l-5.136-8.208c-1.128-1.8-2.208-3.65-3.024-5.403l-.072.024c.12 2.04.168 3.985.168 6.673v6.913H111.5zm16.896-5.425c.048 2.856 1.873 4.032 3.985 4.032 1.514 0 2.426-.264 3.218-.6l.36 1.512c-.744.335-2.017.72-3.864.72-3.577 0-5.713-2.354-5.713-5.858s2.065-6.264 5.45-6.264c3.792 0 4.8 3.336 4.8 5.472 0 .432-.048.768-.07.984h-8.163zm6.193-1.512c.02-1.343-.555-3.432-2.93-3.432-2.137 0-3.073 1.97-3.24 3.434h6.17zm5.492-4.68l1.536 5.905c.336 1.296.647 2.496.863 3.696h.073c.264-1.175.648-2.423 1.032-3.67l1.896-5.93h1.776l1.8 5.81c.433 1.39.77 2.615 1.033 3.79h.07c.193-1.175.505-2.4.89-3.768l1.656-5.833h2.088L151.05 34.88h-1.92l-1.775-5.545c-.408-1.296-.744-2.448-1.032-3.816h-.048c-.288 1.39-.648 2.59-1.057 3.84l-1.872 5.52h-1.92l-3.506-11.62h2.163zm24.6 6.53l-1.68 5.087h-2.16l5.498-16.18h2.52l5.522 16.177h-2.232l-1.73-5.088h-5.736zm5.305-1.633l-1.584-4.656c-.36-1.055-.6-2.015-.84-2.95h-.05c-.24.96-.503 1.943-.814 2.927l-1.586 4.68h4.873zm14.69 6.288c-.554.288-1.777.672-3.338.672-3.505 0-5.785-2.376-5.785-5.93 0-3.575 2.448-6.167 6.24-6.167 1.248 0 2.353.312 2.93.6l-.48 1.632c-.505-.288-1.297-.552-2.45-.552-2.663 0-4.103 1.968-4.103 4.392 0 2.688 1.73 4.345 4.033 4.345 1.2 0 1.992-.312 2.592-.576l.36 1.585zm10.606 0c-.553.288-1.776.672-3.337.672-3.504 0-5.784-2.376-5.784-5.93 0-3.575 2.448-6.167 6.24-6.167 1.248 0 2.353.312 2.93.6l-.48 1.632c-.505-.288-1.297-.552-2.45-.552-2.663 0-4.103 1.968-4.103 4.392 0 2.688 1.73 4.345 4.032 4.345 1.2 0 1.992-.312 2.592-.576l.36 1.585zm12.84-5.472c0 4.296-2.976 6.168-5.784 6.168-3.146 0-5.57-2.303-5.57-5.976 0-3.888 2.545-6.168 5.76-6.168 3.337 0 5.593 2.424 5.593 5.977zm-9.217.12c0 2.544 1.465 4.464 3.528 4.464 2.017 0 3.528-1.896 3.528-4.512 0-1.968-.983-4.464-3.48-4.464-2.496 0-3.576 2.305-3.576 4.513zm21.6 2.616c0 1.2.025 2.255.098 3.167h-1.872l-.12-1.897h-.048c-.553.937-1.776 2.16-3.84 2.16-1.825 0-4.01-1.007-4.01-5.087V23.26h2.112v6.433c0 2.208.673 3.696 2.593 3.696 1.415 0 2.4-.986 2.783-1.92.12-.314.19-.698.19-1.08v-7.13h2.113v8.45zm3.504-5.305c0-1.2-.022-2.184-.095-3.145h1.872l.12 1.92h.048c.576-1.104 1.92-2.184 3.84-2.184 1.608 0 4.105.96 4.105 4.944v6.937h-2.11v-6.7c0-1.872-.697-3.432-2.69-3.432-1.392 0-2.472.984-2.83 2.16-.098.264-.146.624-.146.984v6.984h-2.112v-8.47zm15.768-6.48v3.335h3.024v1.608h-3.024v6.265c0 1.44.408 2.256 1.585 2.256.552 0 .96-.072 1.224-.144l.096 1.584c-.407.167-1.056.287-1.872.287-.98 0-1.773-.312-2.28-.888-.6-.626-.813-1.658-.813-3.026V24.87h-1.8v-1.61h1.8v-2.784l2.062-.552zM59.288 47.69c1.01-.168 2.33-.312 4.01-.312 2.063 0 3.575.48 4.536 1.344.888.768 1.416 1.944 1.416 3.384 0 1.464-.432 2.616-1.248 3.456-1.104 1.176-2.904 1.776-4.945 1.776-.624 0-1.2-.024-1.68-.144v6.48H59.29V47.692zm2.09 7.8c.455.12 1.03.17 1.728.17 2.52 0 4.056-1.225 4.056-3.458 0-2.136-1.512-3.168-3.816-3.168-.912 0-1.608.072-1.968.168v6.29zm16.416 8.185l-.168-1.464h-.072c-.648.913-1.896 1.73-3.552 1.73-2.353 0-3.553-1.656-3.553-3.336 0-2.808 2.495-4.344 6.983-4.32v-.24c0-.96-.264-2.688-2.64-2.688-1.08 0-2.208.336-3.024.864l-.48-1.392c.96-.624 2.35-1.032 3.815-1.032 3.552 0 4.417 2.424 4.417 4.752v4.344c0 1.008.048 1.992.192 2.784h-1.92zm-.312-5.928c-2.304-.05-4.92.36-4.92 2.615 0 1.368.912 2.017 1.992 2.017 1.512 0 2.472-.96 2.808-1.945.072-.216.12-.456.12-.672V57.75zm5.16 3.767c.623.408 1.727.84 2.783.84 1.536 0 2.256-.768 2.256-1.728 0-1.01-.6-1.56-2.16-2.137-2.086-.745-3.07-1.897-3.07-3.29 0-1.87 1.51-3.407 4.008-3.407 1.176 0 2.208.336 2.856.72l-.528 1.536c-.456-.29-1.296-.673-2.376-.673-1.25 0-1.945.72-1.945 1.585 0 .96.696 1.392 2.208 1.968 2.016.768 3.048 1.776 3.048 3.504 0 2.04-1.582 3.48-4.343 3.48-1.272 0-2.448-.312-3.264-.792l.53-1.608zm9.503 0c.624.408 1.728.84 2.784.84 1.534 0 2.254-.768 2.254-1.728 0-1.01-.6-1.56-2.16-2.137-2.088-.745-3.072-1.897-3.072-3.29 0-1.87 1.512-3.407 4.008-3.407 1.177 0 2.21.336 2.857.72l-.528 1.536c-.458-.29-1.298-.673-2.378-.673-1.248 0-1.944.72-1.944 1.585 0 .96.695 1.392 2.207 1.968 2.016.768 3.048 1.776 3.048 3.504 0 2.04-1.584 3.48-4.345 3.48-1.272 0-2.448-.312-3.264-.792l.53-1.608zm10.632-9.457l1.536 5.905c.336 1.296.648 2.496.864 3.696h.072c.262-1.175.646-2.423 1.03-3.67l1.896-5.93h1.776l1.8 5.81c.432 1.39.768 2.615 1.032 3.79h.072c.192-1.175.504-2.4.888-3.768l1.656-5.833h2.09l-3.746 11.616h-1.92l-1.776-5.544c-.408-1.297-.744-2.45-1.032-3.817h-.048c-.288 1.392-.648 2.592-1.056 3.84l-1.872 5.52h-1.92l-3.504-11.616h2.16zm27.097 5.713c0 4.296-2.977 6.168-5.785 6.168-3.146 0-5.57-2.303-5.57-5.976 0-3.888 2.544-6.168 5.76-6.168 3.337 0 5.593 2.424 5.593 5.977zm-9.217.12c0 2.544 1.464 4.464 3.528 4.464 2.016 0 3.528-1.896 3.528-4.512 0-1.968-.984-4.464-3.48-4.464s-3.576 2.305-3.576 4.513zm11.88-2.208c0-1.368-.023-2.544-.096-3.625h1.85l.07 2.28h.098c.528-1.56 1.8-2.544 3.217-2.544.24 0 .408.024.6.072v1.992c-.216-.048-.432-.072-.72-.072-1.488 0-2.544 1.128-2.832 2.712-.048.288-.097.624-.097.984v6.193h-2.088v-7.99zm17.64-9.05v14.042c0 1.032.024 2.208.097 3h-1.896l-.096-2.016h-.048c-.648 1.297-2.064 2.28-3.96 2.28-2.81 0-4.97-2.375-4.97-5.904-.023-3.864 2.377-6.24 5.21-6.24 1.775 0 2.976.84 3.504 1.776h.048v-6.937h2.112zm-2.112 10.154c0-.265-.024-.625-.096-.89-.314-1.343-1.467-2.447-3.05-2.447-2.185 0-3.48 1.92-3.48 4.49 0 2.35 1.15 4.294 3.432 4.294 1.416 0 2.712-.936 3.097-2.52.07-.29.095-.577.095-.913v-2.01zm10.776-9.29h2.09V61.92h6.913v1.753h-9V47.5zm13.61 1.296c.022.72-.505 1.296-1.346 1.296-.743 0-1.27-.576-1.27-1.296 0-.744.55-1.32 1.32-1.32.79 0 1.295.576 1.295 1.32zm-2.353 14.88V52.06h2.112v11.617h-2.113zm5.616-8.47c0-1.2-.023-2.185-.096-3.146h1.872l.12 1.92h.047c.576-1.104 1.92-2.184 3.84-2.184 1.608 0 4.105.96 4.105 4.944v6.937h-2.11V56.98c0-1.872-.696-3.432-2.688-3.432-1.393 0-2.473.984-2.832 2.16-.097.264-.145.624-.145.984v6.984h-2.112v-8.47zm15.407 2.183h.048c.288-.41.695-.913 1.032-1.32l3.408-4.01h2.544l-4.488 4.777 5.112 6.84h-2.568L192.2 58.11l-1.08 1.2v4.368h-2.09V46.636h2.09V57.39z"/><path fill="#00A5AD" stroke="#824679" stroke-width="5" stroke-miterlimit="10" d="M128 157.46c-20.577 0-24.746-31.183-24.746-31.183-2.447-16.227 4.983-34.538 24.477-34.538 19.58 0 27.014 18.31 24.563 34.536 0 0-3.72 31.183-24.292 31.183zm0 23.3l24.663-16.502c21.653 0 40.968 21.122 40.968 41.058v22.573s-33.09 10.25-65.63 10.25c-33.084 0-65.63-10.25-65.63-10.25v-22.575c0-20.396 17.59-40.605 40.52-40.605L128 180.76z"/></svg>
